# WaveFront *.obj file (generated by CINEMA 4D)

v 0 -0.5 0
v 0 0.5 0
v 0.5 -0.5 0
v 0.5 0.5 0
v 0.49240401387215 -0.5 0.08682399988174
v 0.49240401387215 0.5 0.08682399988174
v 0.46984601020813 -0.5 0.17101000249386
v 0.46984601020813 0.5 0.17101000249386
v 0.43301299214363 -0.5 0.25
v 0.43301299214363 0.5 0.25
v 0.38302201032639 -0.5 0.32139399647713
v 0.38302201032639 0.5 0.32139399647713
v 0.32139399647713 -0.5 0.38302201032639
v 0.32139399647713 0.5 0.38302201032639
v 0.25 -0.5 0.43301299214363
v 0.25 0.5 0.43301299214363
v 0.17101000249386 -0.5 0.46984601020813
v 0.17101000249386 0.5 0.46984601020813
v 0.08682399988174 -0.5 0.49240401387215
v 0.08682399988174 0.5 0.49240401387215
v 0 -0.5 0.5
v 0 0.5 0.5
v -0.08682399988174 -0.5 0.49240401387215
v -0.08682399988174 0.5 0.49240401387215
v -0.17101000249386 -0.5 0.46984601020813
v -0.17101000249386 0.5 0.46984601020813
v -0.25 -0.5 0.43301299214363
v -0.25 0.5 0.43301299214363
v -0.32139399647713 -0.5 0.38302201032639
v -0.32139399647713 0.5 0.38302201032639
v -0.38302201032639 -0.5 0.32139399647713
v -0.38302201032639 0.5 0.32139399647713
v -0.43301299214363 -0.5 0.25
v -0.43301299214363 0.5 0.25
v -0.46984601020813 -0.5 0.17101000249386
v -0.46984601020813 0.5 0.17101000249386
v -0.49240401387215 -0.5 0.08682399988174
v -0.49240401387215 0.5 0.08682399988174
v -0.5 -0.5 0
v -0.5 0.5 0
v -0.49240401387215 -0.5 -0.08682399988174
v -0.49240401387215 0.5 -0.08682399988174
v -0.46984601020813 -0.5 -0.17101000249386
v -0.46984601020813 0.5 -0.17101000249386
v -0.43301299214363 -0.5 -0.25
v -0.43301299214363 0.5 -0.25
v -0.38302201032639 -0.5 -0.32139399647713
v -0.38302201032639 0.5 -0.32139399647713
v -0.32139399647713 -0.5 -0.38302201032639
v -0.32139399647713 0.5 -0.38302201032639
v -0.25 -0.5 -0.43301299214363
v -0.25 0.5 -0.43301299214363
v -0.17101000249386 -0.5 -0.46984601020813
v -0.17101000249386 0.5 -0.46984601020813
v -0.08682399988174 -0.5 -0.49240401387215
v -0.08682399988174 0.5 -0.49240401387215
v 0 -0.5 -0.5
v 0 0.5 -0.5
v 0.08682399988174 -0.5 -0.49240401387215
v 0.08682399988174 0.5 -0.49240401387215
v 0.17101000249386 -0.5 -0.46984601020813
v 0.17101000249386 0.5 -0.46984601020813
v 0.25 -0.5 -0.43301299214363
v 0.25 0.5 -0.43301299214363
v 0.32139399647713 -0.5 -0.38302201032639
v 0.32139399647713 0.5 -0.38302201032639
v 0.38302201032639 -0.5 -0.32139399647713
v 0.38302201032639 0.5 -0.32139399647713
v 0.43301299214363 -0.5 -0.25
v 0.43301299214363 0.5 -0.25
v 0.46984601020813 -0.5 -0.17101000249386
v 0.46984601020813 0.5 -0.17101000249386
v 0.49240401387215 -0.5 -0.08682399988174
v 0.49240401387215 0.5 -0.08682399988174
# 74 vertices

vn -0.49999865889549 0 0.8660261631012
vn -0.64278894662857 0 0.76604330539703
vn 1 0 0
vn 0.98480743169785 0 0.17364986240864
vn -0.76604330539703 0 0.64278894662857
vn 0.49999865889549 0 -0.8660261631012
vn 0.64278894662857 0 -0.76604330539703
vn 0.93969297409058 0 0.34201914072037
vn -0.49999865889549 0 -0.8660261631012
vn -0.34201914072037 0 -0.93969297409058
vn -0.8660261631012 0 0.49999865889549
vn 0.8660261631012 0 0.49999865889549
vn -0.93969297409058 0 0.34201914072037
vn 0.76604330539703 0 -0.64278894662857
vn 0.76604330539703 0 0.64278894662857
vn -0.17364986240864 0 -0.98480743169785
vn -0.98480743169785 0 0.17364986240864
vn 0.64278894662857 0 0.76604330539703
vn -1 0 0
vn 0.8660261631012 0 -0.49999865889549
vn 0.49999865889549 0 0.8660261631012
vn 0 0 -1
vn -0.98480743169785 0 -0.17364986240864
vn 0.34201914072037 0 0.93969297409058
vn -0.93969297409058 0 -0.34201914072037
vn 0.93969297409058 0 -0.34201914072037
vn 0.17364986240864 0 0.98480743169785
vn 0.17364986240864 0 -0.98480743169785
vn -0.8660261631012 0 -0.49999865889549
vn 0 0 1
vn -0.76604330539703 0 -0.64278894662857
vn 0.98480743169785 0 -0.17364986240864
vn -0.17364986240864 0 0.98480743169785
vn 0.34201914072037 0 -0.93969297409058
vn -0.64278894662857 0 -0.76604330539703
vn -0.34201914072037 0 0.93969297409058
# 36 normals

vt 0.33333298563957 0 0
vt 0.33333298563957 1 0
vt 0.36111098527908 1 0
vt 0.36111098527908 0 0
vt 0 0 0
vt 0 1 0
vt 0.02777799963951 1 0
vt 0.02777799963951 0 0
vt 0.38888901472092 1 0
vt 0.38888901472092 0 0
vt 0.83333301544189 0 0
vt 0.83333301544189 1 0
vt 0.86111098527908 1 0
vt 0.86111098527908 0 0
vt 0.05555599927902 1 0
vt 0.05555599927902 0 0
vt 0.66666698455811 0 0
vt 0.66666698455811 1 0
vt 0.69444400072098 1 0
vt 0.69444400072098 0 0
vt 0.41666701436043 1 0
vt 0.41666701436043 0 0
vt 0.08333300054073 1 0
vt 0.08333300054073 0 0
vt 0.44444400072098 1 0
vt 0.44444400072098 0 0
vt 0.88888901472092 1 0
vt 0.88888901472092 0 0
vt 0.11111100018024 1 0
vt 0.11111100018024 0 0
vt 0.72222197055817 1 0
vt 0.72222197055817 0 0
vt 0.47222200036049 1 0
vt 0.47222200036049 0 0
vt 0.13888899981976 1 0
vt 0.13888899981976 0 0
vt 0.5 1 0
vt 0.5 0 0
vt 0.91666698455811 1 0
vt 0.91666698455811 0 0
vt 0.16666699945927 1 0
vt 0.16666699945927 0 0
vt 0.75 1 0
vt 0.75 0 0
vt 0.52777802944183 1 0
vt 0.52777802944183 0 0
vt 0.19444400072098 1 0
vt 0.19444400072098 0 0
vt 0.55555599927902 1 0
vt 0.55555599927902 0 0
vt 0.94444400072098 1 0
vt 0.94444400072098 0 0
vt 0.22222200036049 1 0
vt 0.22222200036049 0 0
vt 0.77777802944183 1 0
vt 0.77777802944183 0 0
vt 0.58333301544189 1 0
vt 0.58333301544189 0 0
vt 0.25 1 0
vt 0.25 0 0
vt 0.61111098527908 1 0
vt 0.61111098527908 0 0
vt 0.97222197055817 1 0
vt 0.97222197055817 0 0
vt 0.27777799963951 1 0
vt 0.27777799963951 0 0
vt 0.80555599927902 1 0
vt 0.80555599927902 0 0
vt 0.63888901472092 1 0
vt 0.63888901472092 0 0
vt 0.30555599927902 1 0
vt 0.30555599927902 0 0
vt 1 1 0
vt 1 0 0
# 74 texture coordinates

o Cylinder_1
usemtl Default
f 27/1/1 28/2/1 30/3/2 29/4/2
f 3/5/3 4/6/3 6/7/4 5/8/4
f 29/4/2 30/3/2 32/9/5 31/10/5
f 63/11/6 64/12/6 66/13/7 65/14/7
f 5/8/4 6/7/4 8/15/8 7/16/8
f 51/17/9 52/18/9 54/19/10 53/20/10
f 31/10/5 32/9/5 34/21/11 33/22/11
f 7/16/8 8/15/8 10/23/12 9/24/12
f 33/22/11 34/21/11 36/25/13 35/26/13
f 65/14/7 66/13/7 68/27/14 67/28/14
f 9/24/12 10/23/12 12/29/15 11/30/15
f 53/20/10 54/19/10 56/31/16 55/32/16
f 35/26/13 36/25/13 38/33/17 37/34/17
f 11/30/15 12/29/15 14/35/18 13/36/18
f 37/34/17 38/33/17 40/37/19 39/38/19
f 67/28/14 68/27/14 70/39/20 69/40/20
f 13/36/18 14/35/18 16/41/21 15/42/21
f 55/32/16 56/31/16 58/43/22 57/44/22
f 39/38/19 40/37/19 42/45/23 41/46/23
f 15/42/21 16/41/21 18/47/24 17/48/24
f 41/46/23 42/45/23 44/49/25 43/50/25
f 69/40/20 70/39/20 72/51/26 71/52/26
f 17/48/24 18/47/24 20/53/27 19/54/27
f 57/44/22 58/43/22 60/55/28 59/56/28
f 43/50/25 44/49/25 46/57/29 45/58/29
f 19/54/27 20/53/27 22/59/30 21/60/30
f 45/58/29 46/57/29 48/61/31 47/62/31
f 71/52/26 72/51/26 74/63/32 73/64/32
f 21/60/30 22/59/30 24/65/33 23/66/33
f 59/56/28 60/55/28 62/67/34 61/68/34
f 47/62/31 48/61/31 50/69/35 49/70/35
f 23/66/33 24/65/33 26/71/36 25/72/36
f 49/70/35 50/69/35 52/18/9 51/17/9
f 73/64/32 74/63/32 4/73/3 3/74/3
f 25/72/36 26/71/36 28/2/1 27/1/1
f 61/68/34 62/67/34 64/12/6 63/11/6

